<mxfile host="app.diagrams.net" agent="Mozilla/5.0 (Windows NT 10.0; Win64; x64) AppleWebKit/537.36 (KHTML, like Gecko) Chrome/134.0.0.0 Safari/537.36 Edg/134.0.0.0" version="26.2.6">
  <diagram name="Page-1" id="74e2e168-ea6b-b213-b513-2b3c1d86103e">
    <mxGraphModel dx="914" dy="869" grid="1" gridSize="10" guides="1" tooltips="1" connect="1" arrows="1" fold="1" page="1" pageScale="1" pageWidth="1100" pageHeight="850" background="#ffffff" math="0" shadow="0">
      <root>
        <mxCell id="0" />
        <mxCell id="1" parent="0" />
        <mxCell id="qfnQuLsDxOdEgcA0F3du-4" value="&lt;font style=&quot;font-size: 26px;&quot;&gt;城市安全态势感知系统&lt;/font&gt;" style="rounded=0;whiteSpace=wrap;html=1;fillColor=light-dark(#396ea2, #7dbeff);strokeColor=#006EAF;fontColor=#ffffff;" vertex="1" parent="1">
          <mxGeometry x="80" y="40" width="940" height="80" as="geometry" />
        </mxCell>
        <mxCell id="qfnQuLsDxOdEgcA0F3du-13" value="&lt;font style=&quot;font-size: 18px;&quot;&gt;视频流采集与管理&lt;/font&gt;" style="rounded=0;whiteSpace=wrap;html=1;fillColor=#cce5ff;strokeColor=#36393d;" vertex="1" parent="1">
          <mxGeometry x="80" y="130" width="180" height="60" as="geometry" />
        </mxCell>
        <mxCell id="qfnQuLsDxOdEgcA0F3du-14" value="&lt;font style=&quot;font-size: 18px;&quot;&gt;检测与分析模块&lt;/font&gt;" style="rounded=0;whiteSpace=wrap;html=1;fillColor=#cce5ff;strokeColor=#36393d;" vertex="1" parent="1">
          <mxGeometry x="460" y="130" width="180" height="60" as="geometry" />
        </mxCell>
        <mxCell id="qfnQuLsDxOdEgcA0F3du-15" value="大数据分析模块" style="rounded=0;whiteSpace=wrap;html=1;fillColor=#cce5ff;strokeColor=#36393d;fontSize=18;container=0;" vertex="1" parent="1">
          <mxGeometry x="650" y="130" width="180" height="60" as="geometry" />
        </mxCell>
        <mxCell id="qfnQuLsDxOdEgcA0F3du-16" value="&lt;span style=&quot;font-size: 18px;&quot;&gt;态势感知模块&lt;/span&gt;" style="rounded=0;whiteSpace=wrap;html=1;fillColor=#cce5ff;strokeColor=#36393d;" vertex="1" parent="1">
          <mxGeometry x="840" y="130" width="180" height="60" as="geometry" />
        </mxCell>
        <mxCell id="qfnQuLsDxOdEgcA0F3du-17" value="&lt;font style=&quot;font-size: 18px;&quot;&gt;后台管理模块&lt;/font&gt;" style="rounded=0;whiteSpace=wrap;html=1;fillColor=#cce5ff;strokeColor=#36393d;" vertex="1" parent="1">
          <mxGeometry x="270" y="130" width="180" height="60" as="geometry" />
        </mxCell>
        <mxCell id="qfnQuLsDxOdEgcA0F3du-18" value="" style="rounded=0;whiteSpace=wrap;html=1;fillColor=#f5f5f5;strokeColor=#666666;fontColor=#333333;" vertex="1" parent="1">
          <mxGeometry x="80" y="190" width="180" height="730" as="geometry" />
        </mxCell>
        <mxCell id="qfnQuLsDxOdEgcA0F3du-19" value="" style="rounded=0;whiteSpace=wrap;html=1;fillColor=#f5f5f5;strokeColor=#666666;fontColor=#333333;" vertex="1" parent="1">
          <mxGeometry x="460" y="190" width="180" height="730" as="geometry" />
        </mxCell>
        <mxCell id="qfnQuLsDxOdEgcA0F3du-20" value="" style="rounded=0;whiteSpace=wrap;html=1;fillColor=#f5f5f5;fontColor=#333333;strokeColor=#666666;" vertex="1" parent="1">
          <mxGeometry x="650" y="190" width="180" height="730" as="geometry" />
        </mxCell>
        <mxCell id="qfnQuLsDxOdEgcA0F3du-21" value="" style="rounded=0;whiteSpace=wrap;html=1;fillColor=#f5f5f5;fontColor=#333333;strokeColor=#666666;" vertex="1" parent="1">
          <mxGeometry x="840" y="190" width="180" height="730" as="geometry" />
        </mxCell>
        <mxCell id="qfnQuLsDxOdEgcA0F3du-22" value="" style="rounded=0;whiteSpace=wrap;html=1;fillColor=#f5f5f5;fontColor=#333333;strokeColor=#666666;" vertex="1" parent="1">
          <mxGeometry x="270" y="190" width="180" height="730" as="geometry" />
        </mxCell>
        <mxCell id="qfnQuLsDxOdEgcA0F3du-36" value="" style="edgeStyle=orthogonalEdgeStyle;rounded=0;orthogonalLoop=1;jettySize=auto;html=1;" edge="1" parent="1" source="qfnQuLsDxOdEgcA0F3du-34" target="qfnQuLsDxOdEgcA0F3du-35">
          <mxGeometry relative="1" as="geometry" />
        </mxCell>
        <mxCell id="qfnQuLsDxOdEgcA0F3du-34" value="摄像头接入网络" style="rounded=0;whiteSpace=wrap;html=1;gradientColor=light-dark(#3A88C6,#EDEDED);gradientDirection=north;" vertex="1" parent="1">
          <mxGeometry x="110" y="220" width="120" height="60" as="geometry" />
        </mxCell>
        <mxCell id="qfnQuLsDxOdEgcA0F3du-44" style="edgeStyle=orthogonalEdgeStyle;rounded=0;orthogonalLoop=1;jettySize=auto;html=1;entryX=0;entryY=0.5;entryDx=0;entryDy=0;" edge="1" parent="1" source="qfnQuLsDxOdEgcA0F3du-35" target="qfnQuLsDxOdEgcA0F3du-42">
          <mxGeometry relative="1" as="geometry">
            <Array as="points">
              <mxPoint x="170" y="770" />
            </Array>
          </mxGeometry>
        </mxCell>
        <mxCell id="qfnQuLsDxOdEgcA0F3du-35" value="流媒体服务器分发" style="whiteSpace=wrap;html=1;rounded=0;gradientColor=#3A88C6;gradientDirection=north;" vertex="1" parent="1">
          <mxGeometry x="110" y="440" width="120" height="60" as="geometry" />
        </mxCell>
        <mxCell id="qfnQuLsDxOdEgcA0F3du-37" value="推流" style="text;html=1;align=center;verticalAlign=middle;whiteSpace=wrap;rounded=0;fillColor=default;" vertex="1" parent="1">
          <mxGeometry x="140" y="330" width="60" height="30" as="geometry" />
        </mxCell>
        <mxCell id="qfnQuLsDxOdEgcA0F3du-106" style="edgeStyle=orthogonalEdgeStyle;rounded=0;orthogonalLoop=1;jettySize=auto;html=1;entryX=0;entryY=0.5;entryDx=0;entryDy=0;" edge="1" parent="1" source="qfnQuLsDxOdEgcA0F3du-42" target="qfnQuLsDxOdEgcA0F3du-59">
          <mxGeometry relative="1" as="geometry" />
        </mxCell>
        <mxCell id="qfnQuLsDxOdEgcA0F3du-42" value="添加视频流" style="rounded=0;whiteSpace=wrap;html=1;gradientColor=#3A88C6;gradientDirection=north;" vertex="1" parent="1">
          <mxGeometry x="300" y="740" width="120" height="60" as="geometry" />
        </mxCell>
        <mxCell id="qfnQuLsDxOdEgcA0F3du-69" style="edgeStyle=orthogonalEdgeStyle;rounded=0;orthogonalLoop=1;jettySize=auto;html=1;entryX=0;entryY=0.5;entryDx=0;entryDy=0;" edge="1" parent="1" source="qfnQuLsDxOdEgcA0F3du-48" target="qfnQuLsDxOdEgcA0F3du-68">
          <mxGeometry relative="1" as="geometry" />
        </mxCell>
        <mxCell id="qfnQuLsDxOdEgcA0F3du-48" value="添加布控任务" style="rounded=0;whiteSpace=wrap;html=1;gradientColor=#3A88C6;gradientDirection=north;" vertex="1" parent="1">
          <mxGeometry x="300" y="330" width="120" height="60" as="geometry" />
        </mxCell>
        <mxCell id="qfnQuLsDxOdEgcA0F3du-66" value="" style="edgeStyle=orthogonalEdgeStyle;rounded=0;orthogonalLoop=1;jettySize=auto;html=1;" edge="1" parent="1" source="qfnQuLsDxOdEgcA0F3du-59" target="qfnQuLsDxOdEgcA0F3du-65">
          <mxGeometry relative="1" as="geometry" />
        </mxCell>
        <mxCell id="qfnQuLsDxOdEgcA0F3du-59" value="实时检测收集" style="rounded=0;whiteSpace=wrap;html=1;gradientColor=#3A88C6;gradientDirection=north;" vertex="1" parent="1">
          <mxGeometry x="490" y="740" width="120" height="60" as="geometry" />
        </mxCell>
        <mxCell id="qfnQuLsDxOdEgcA0F3du-98" style="edgeStyle=orthogonalEdgeStyle;rounded=0;orthogonalLoop=1;jettySize=auto;html=1;" edge="1" parent="1" source="qfnQuLsDxOdEgcA0F3du-65" target="qfnQuLsDxOdEgcA0F3du-96">
          <mxGeometry relative="1" as="geometry" />
        </mxCell>
        <mxCell id="qfnQuLsDxOdEgcA0F3du-65" value="行人历史轨迹数据库" style="rounded=0;whiteSpace=wrap;html=1;gradientColor=#3A88C6;gradientDirection=north;" vertex="1" parent="1">
          <mxGeometry x="680" y="740" width="120" height="60" as="geometry" />
        </mxCell>
        <mxCell id="qfnQuLsDxOdEgcA0F3du-94" style="edgeStyle=orthogonalEdgeStyle;rounded=0;orthogonalLoop=1;jettySize=auto;html=1;entryX=0;entryY=0.5;entryDx=0;entryDy=0;" edge="1" parent="1" source="qfnQuLsDxOdEgcA0F3du-68" target="qfnQuLsDxOdEgcA0F3du-91">
          <mxGeometry relative="1" as="geometry" />
        </mxCell>
        <mxCell id="qfnQuLsDxOdEgcA0F3du-68" value="开启目标检测匹配" style="rounded=0;whiteSpace=wrap;html=1;gradientColor=#3A88C6;gradientDirection=north;" vertex="1" parent="1">
          <mxGeometry x="490" y="330" width="120" height="60" as="geometry" />
        </mxCell>
        <mxCell id="qfnQuLsDxOdEgcA0F3du-78" style="edgeStyle=orthogonalEdgeStyle;rounded=0;orthogonalLoop=1;jettySize=auto;html=1;" edge="1" parent="1" source="qfnQuLsDxOdEgcA0F3du-73">
          <mxGeometry relative="1" as="geometry">
            <mxPoint x="490" y="520" as="targetPoint" />
          </mxGeometry>
        </mxCell>
        <mxCell id="qfnQuLsDxOdEgcA0F3du-73" value="添加查询任务" style="rounded=0;whiteSpace=wrap;html=1;gradientColor=#3A88C6;gradientDirection=north;" vertex="1" parent="1">
          <mxGeometry x="300" y="490" width="120" height="60" as="geometry" />
        </mxCell>
        <mxCell id="qfnQuLsDxOdEgcA0F3du-83" style="edgeStyle=orthogonalEdgeStyle;rounded=0;orthogonalLoop=1;jettySize=auto;html=1;entryX=0;entryY=0.5;entryDx=0;entryDy=0;" edge="1" parent="1" source="qfnQuLsDxOdEgcA0F3du-84" target="qfnQuLsDxOdEgcA0F3du-82">
          <mxGeometry relative="1" as="geometry" />
        </mxCell>
        <mxCell id="qfnQuLsDxOdEgcA0F3du-89" style="edgeStyle=orthogonalEdgeStyle;rounded=0;orthogonalLoop=1;jettySize=auto;html=1;entryX=0;entryY=0.5;entryDx=0;entryDy=0;" edge="1" parent="1" source="qfnQuLsDxOdEgcA0F3du-84" target="qfnQuLsDxOdEgcA0F3du-82">
          <mxGeometry relative="1" as="geometry" />
        </mxCell>
        <mxCell id="qfnQuLsDxOdEgcA0F3du-79" value="是否多模态" style="rhombus;whiteSpace=wrap;html=1;fillColor=#DAEBD1;strokeColor=#36393d;" vertex="1" parent="1">
          <mxGeometry x="490" y="480" width="120" height="80" as="geometry" />
        </mxCell>
        <mxCell id="qfnQuLsDxOdEgcA0F3du-97" style="edgeStyle=orthogonalEdgeStyle;rounded=0;orthogonalLoop=1;jettySize=auto;html=1;entryX=0.5;entryY=0;entryDx=0;entryDy=0;" edge="1" parent="1" source="qfnQuLsDxOdEgcA0F3du-82" target="qfnQuLsDxOdEgcA0F3du-96">
          <mxGeometry relative="1" as="geometry" />
        </mxCell>
        <mxCell id="qfnQuLsDxOdEgcA0F3du-82" value="处理视频录像" style="rounded=0;whiteSpace=wrap;html=1;gradientColor=#3A88C6;gradientDirection=north;" vertex="1" parent="1">
          <mxGeometry x="680" y="490" width="120" height="60" as="geometry" />
        </mxCell>
        <mxCell id="qfnQuLsDxOdEgcA0F3du-90" value="形成&lt;span style=&quot;color: light-dark(rgb(0, 0, 0), rgb(255, 255, 255)); background-color: transparent;&quot;&gt;地图可视化&lt;/span&gt;&lt;div&gt;&lt;span style=&quot;background-color: transparent; color: light-dark(rgb(0, 0, 0), rgb(255, 255, 255));&quot;&gt;安全报告&lt;/span&gt;&lt;/div&gt;" style="rounded=0;whiteSpace=wrap;html=1;gradientColor=#3A88C6;gradientDirection=north;" vertex="1" parent="1">
          <mxGeometry x="870" y="490" width="120" height="60" as="geometry" />
        </mxCell>
        <mxCell id="qfnQuLsDxOdEgcA0F3du-95" style="edgeStyle=orthogonalEdgeStyle;rounded=0;orthogonalLoop=1;jettySize=auto;html=1;entryX=0.5;entryY=0;entryDx=0;entryDy=0;" edge="1" parent="1" source="qfnQuLsDxOdEgcA0F3du-91" target="qfnQuLsDxOdEgcA0F3du-90">
          <mxGeometry relative="1" as="geometry" />
        </mxCell>
        <mxCell id="qfnQuLsDxOdEgcA0F3du-91" value="产生告警信息" style="rounded=0;whiteSpace=wrap;html=1;gradientColor=#3A88C6;gradientDirection=north;" vertex="1" parent="1">
          <mxGeometry x="870" y="330" width="120" height="60" as="geometry" />
        </mxCell>
        <mxCell id="qfnQuLsDxOdEgcA0F3du-92" value="" style="edgeStyle=orthogonalEdgeStyle;rounded=0;orthogonalLoop=1;jettySize=auto;html=1;entryX=0;entryY=0.5;entryDx=0;entryDy=0;" edge="1" parent="1" source="qfnQuLsDxOdEgcA0F3du-79" target="qfnQuLsDxOdEgcA0F3du-84">
          <mxGeometry relative="1" as="geometry">
            <mxPoint x="610" y="520" as="sourcePoint" />
            <mxPoint x="680" y="520" as="targetPoint" />
          </mxGeometry>
        </mxCell>
        <mxCell id="qfnQuLsDxOdEgcA0F3du-84" value="是" style="text;html=1;align=center;verticalAlign=middle;whiteSpace=wrap;rounded=0;aspect=fixed;fillColor=default;" vertex="1" parent="1">
          <mxGeometry x="620" y="510" width="40" height="20" as="geometry" />
        </mxCell>
        <mxCell id="qfnQuLsDxOdEgcA0F3du-96" value="生成查询报告" style="rounded=0;whiteSpace=wrap;html=1;gradientColor=#3A88C6;gradientDirection=north;" vertex="1" parent="1">
          <mxGeometry x="680" y="620" width="120" height="60" as="geometry" />
        </mxCell>
        <mxCell id="qfnQuLsDxOdEgcA0F3du-101" value="拉流" style="text;html=1;align=center;verticalAlign=middle;whiteSpace=wrap;rounded=0;fillColor=default;" vertex="1" parent="1">
          <mxGeometry x="140" y="700" width="60" height="30" as="geometry" />
        </mxCell>
        <mxCell id="qfnQuLsDxOdEgcA0F3du-102" value="写入" style="text;html=1;align=center;verticalAlign=middle;whiteSpace=wrap;rounded=0;fillColor=default;" vertex="1" parent="1">
          <mxGeometry x="620" y="755" width="40" height="25" as="geometry" />
        </mxCell>
        <mxCell id="qfnQuLsDxOdEgcA0F3du-105" style="edgeStyle=orthogonalEdgeStyle;rounded=0;orthogonalLoop=1;jettySize=auto;html=1;exitX=0;exitY=0.5;exitDx=0;exitDy=0;entryX=0;entryY=0.5;entryDx=0;entryDy=0;" edge="1" parent="1" source="qfnQuLsDxOdEgcA0F3du-103" target="qfnQuLsDxOdEgcA0F3du-59">
          <mxGeometry relative="1" as="geometry">
            <Array as="points">
              <mxPoint x="460" y="770" />
              <mxPoint x="460" y="770" />
            </Array>
          </mxGeometry>
        </mxCell>
        <mxCell id="qfnQuLsDxOdEgcA0F3du-103" value="开始分析" style="text;html=1;align=center;verticalAlign=middle;whiteSpace=wrap;rounded=0;fillColor=default;" vertex="1" parent="1">
          <mxGeometry x="430" y="757.5" width="40" height="25" as="geometry" />
        </mxCell>
        <mxCell id="qfnQuLsDxOdEgcA0F3du-107" value="检测到目标" style="text;html=1;align=center;verticalAlign=middle;whiteSpace=wrap;rounded=0;fillColor=default;" vertex="1" parent="1">
          <mxGeometry x="700" y="345" width="60" height="30" as="geometry" />
        </mxCell>
      </root>
    </mxGraphModel>
  </diagram>
</mxfile>
